<?xml version="1.0" encoding="utf-8"?>
<!-- Generator: Adobe Illustrator 27.8.0, SVG Export Plug-In . SVG Version: 6.00 Build 0)  -->
<svg version="1.1" xmlns="http://www.w3.org/2000/svg" xmlns:xlink="http://www.w3.org/1999/xlink" x="0px" y="0px"
	 viewBox="0 0 145.9 177.3" style="enable-background:new 0 0 145.9 177.3;" xml:space="preserve">
<style type="text/css">
	.st0{display:none;}
	.st1{fill:#EFE3EA;}
	.st2{fill:#F392C9;}
	.st3{opacity:0.92;fill:#EFE3EA;}
</style>
<g id="Layer_1" class="st0">
	
		<image style="display:inline;overflow:visible;" width="766" height="640" xlink:href="../../../../Pictures/Screenshots/clapper.png"  transform="matrix(0.375 0 0 0.375 -61.0124 -20.3161)">
	</image>
</g>
<g id="Layer_2">
	<circle class="st1" cx="13.6" cy="76.1" r="13.6"/>
	<g>
		<path class="st1" d="M6.1,57.9l-2.5-5.7c-0.4-2.6-0.1-4.5,1.3-5.8l113.6-46c3.7-0.9,6.4-0.3,8.1,2.7l10.2,22.9L31.9,68.6
			C27.2,58.5,18.6,55.1,6.1,57.9z"/>
		<path class="st2" d="M37.9,58.7l20.7-8.7c-5.6-4-11.2-8-16.8-12c-6.9,2.7-13.8,5.4-20.7,8.2C26.8,50.3,32.4,54.5,37.9,58.7z"/>
		<path class="st2" d="M71.7,44.7l20.7-8.7c-5.6-4-11.2-8-16.8-12c-6.9,2.7-13.8,5.4-20.7,8.2C60.5,36.3,66.1,40.5,71.7,44.7z"/>
		<path class="st2" d="M105.7,31.1l20.7-8.7c-5.6-4-11.2-8-16.8-12c-6.9,2.7-13.8,5.4-20.7,8.2C94.6,22.8,100.2,27,105.7,31.1z"/>
	</g>
	<g>
		<path class="st3" d="M12.3,95.2v76.1c0.2,4.3,2.7,5.9,6.4,6h119.5c5,0.3,8-1.9,7.7-8.5l-1.3-91.9l-111.9,0
			C30.4,87.5,24.5,94.5,12.3,95.2z"/>
		<path class="st2" d="M91.4,100.2c-7.8,0-15.7,0-23.5,0.1c3.6-5.9,7.1-11.8,10.7-17.6c7.7,0.1,15.3,0.2,23,0.3
			C98.1,88.7,94.8,94.5,91.4,100.2z"/>
		<path class="st2" d="M54.9,99.6c-7.8,0-15.7,0-23.5,0.1C34.9,93.8,38.5,88,42,82.1c7.7,0.1,15.3,0.2,23,0.3
			C61.7,88.1,58.3,93.9,54.9,99.6z"/>
		<path class="st2" d="M128.2,100.4c-7.8,0-15.7,0-23.5,0.1c3.6-5.9,7.1-11.8,10.7-17.6c7.7,0.1,15.3,0.2,23,0.3
			C135,88.9,131.6,94.7,128.2,100.4z"/>
	</g>
</g>
</svg>
