<?xml version="1.0" encoding="UTF-8"?>
<svg id="Layer_1" data-name="Layer 1" xmlns="http://www.w3.org/2000/svg" viewBox="0 0 622.47 707.39">
  <defs>
    <style>
      .gffill {
        fill: #f89b3e;
      }

      .leaf {
        fill: #8dc63f;
      }
    </style>
  </defs>
  <path class="gffill" d="m622.47,396.15c0,171.89-139.34,311.23-311.23,311.23S0,568.04,0,396.15,139.34,84.92,311.23,84.92c18.03,0,35.69,1.53,52.88,4.47,146.7,25.11,258.35,152.9,258.35,306.76h0Z"/>
  <path class="leaf" d="m288.89,0l13.46,84.92c8.35.33,16.71.66,25.06.99C329.31,57.27,331.22,28.63,333.12,0h-44.23,0Z"/>
  <path class="leaf" d="m306.38,85.91s-69.23-20.53-109.62,58.32-42.31,194.23-42.31,194.23c0,0,71.15-53.85,119.23-78.85,24.99-13,68.1-77,57.89-123.08-9.43-42.56-25.2-50.62-25.2-50.62h.01Z"/>
</svg>