<?xml version="1.0" encoding="utf-8"?>
<!-- Generator: Adobe Illustrator 27.8.0, SVG Export Plug-In . SVG Version: 6.00 Build 0)  -->
<svg version="1.1" id="Layer_1" xmlns="http://www.w3.org/2000/svg" xmlns:xlink="http://www.w3.org/1999/xlink" x="0px" y="0px"
	 viewBox="0 0 87.5 101.1" style="enable-background:new 0 0 87.5 101.1;" xml:space="preserve">
<style type="text/css">
	.st0{fill:none;}
	.st1{enable-background:new    ;}
	.st2{fill:#D8DBEE;}
	.st3{fill:none;stroke:#9393C8;stroke-width:0.75;stroke-miterlimit:10;}
</style>
<g>
	<rect x="29.5" y="9.1" class="st0" width="58" height="56.1"/>
	<g class="st1">
		<path class="st2" d="M54.4,44l-8.4,4.8c-1.9,3.2-3.7,6.1-5.6,8.9c-1.9,2.8-3.5,5.1-5,7s-2.7,3.2-3.8,4.2c-1.1,1-1.8,1.4-2.3,1.4
			c-0.7,0-1.2-0.2-1.7-0.7c-0.4-0.5-0.6-1-0.6-1.6c0-2.3,1.3-5.1,3.9-8.6c2.6-3.4,6.6-7.1,12.2-11c2.4-4.6,4.4-8.8,6-12.6
			c1.6-3.8,2.8-7,3.6-9.7c0.8-2.7,1.4-4.8,1.7-6.5c0.3-1.6,0.5-2.7,0.5-3.1c0-0.9-0.3-1.4-1-1.4c-0.6,0-1.4,0.3-2.5,1
			c-1.1,0.7-2.3,1.6-3.6,2.9c-1.3,1.3-2.5,2.8-3.6,4.5c-1.1,1.7-2.1,3.6-3.1,5.7c-0.9,2.1-1.6,4-2.1,5.8c-0.5,1.8-0.7,3.2-0.7,4.3
			c0,0.3,0,0.9,0.1,1.8c0.2-0.3,0.4-0.7,0.7-1.1c0.3-0.4,0.6-0.9,1-1.3c0.4-0.4,0.9-0.8,1.3-1.1c0.3-0.2,0.6-0.4,1-0.5
			s0.6-0.1,0.6,0c0,0.1-0.6,0.9-1.8,2.4c-1.2,1.5-2.3,2.8-3.1,4c-0.5,0.7-1.2,1.3-2,1.9c-0.8,0.6-1.5,0.9-2.1,0.9
			c-0.6,0-1.1-0.3-1.3-0.9c-0.2-0.6-0.3-1.5-0.3-2.8c0-3.1,0.5-6.6,1.6-10.4s2.5-7.2,4.3-10c1.5-2.3,3.2-4.4,5.4-6.2
			c2.1-1.9,4.2-3.3,6.2-4.3c2-1,3.6-1.6,4.7-1.6c1.4,0,2.5,0.4,3.2,1.3c0.8,0.9,1.1,2.1,1.1,3.6c0,0.8-0.1,1.6-0.3,2.6
			s-0.4,1.9-0.7,2.9c-0.3,1-0.8,2.5-1.4,4.7c-0.7,2.2-1.1,3.6-1.3,4.3c-0.7,2.2-1.5,4.4-2.6,6.7s-2.6,5.3-4.6,9.1l6.5-3.5V44z"/>
	</g>
	<g class="st1">
		<path class="st3" d="M54.4,44l-8.4,4.8c-1.9,3.2-3.7,6.1-5.6,8.9c-1.9,2.8-3.5,5.1-5,7s-2.7,3.2-3.8,4.2c-1.1,1-1.8,1.4-2.3,1.4
			c-0.7,0-1.2-0.2-1.7-0.7c-0.4-0.5-0.6-1-0.6-1.6c0-2.3,1.3-5.1,3.9-8.6c2.6-3.4,6.6-7.1,12.2-11c2.4-4.6,4.4-8.8,6-12.6
			c1.6-3.8,2.8-7,3.6-9.7c0.8-2.7,1.4-4.8,1.7-6.5c0.3-1.6,0.5-2.7,0.5-3.1c0-0.9-0.3-1.4-1-1.4c-0.6,0-1.4,0.3-2.5,1
			c-1.1,0.7-2.3,1.6-3.6,2.9c-1.3,1.3-2.5,2.8-3.6,4.5c-1.1,1.7-2.1,3.6-3.1,5.7c-0.9,2.1-1.6,4-2.1,5.8c-0.5,1.8-0.7,3.2-0.7,4.3
			c0,0.3,0,0.9,0.1,1.8c0.2-0.3,0.4-0.7,0.7-1.1c0.3-0.4,0.6-0.9,1-1.3c0.4-0.4,0.9-0.8,1.3-1.1c0.3-0.2,0.6-0.4,1-0.5
			s0.6-0.1,0.6,0c0,0.1-0.6,0.9-1.8,2.4c-1.2,1.5-2.3,2.8-3.1,4c-0.5,0.7-1.2,1.3-2,1.9c-0.8,0.6-1.5,0.9-2.1,0.9
			c-0.6,0-1.1-0.3-1.3-0.9c-0.2-0.6-0.3-1.5-0.3-2.8c0-3.1,0.5-6.6,1.6-10.4s2.5-7.2,4.3-10c1.5-2.3,3.2-4.4,5.4-6.2
			c2.1-1.9,4.2-3.3,6.2-4.3c2-1,3.6-1.6,4.7-1.6c1.4,0,2.5,0.4,3.2,1.3c0.8,0.9,1.1,2.1,1.1,3.6c0,0.8-0.1,1.6-0.3,2.6
			s-0.4,1.9-0.7,2.9c-0.3,1-0.8,2.5-1.4,4.7c-0.7,2.2-1.1,3.6-1.3,4.3c-0.7,2.2-1.5,4.4-2.6,6.7s-2.6,5.3-4.6,9.1l6.5-3.5V44z"/>
	</g>
	<rect x="39.3" y="42" class="st0" width="48.2" height="75"/>
	<g class="st1">
		<path class="st2" d="M61.8,42.7c-1.8,0.3-3.9,1.1-6.4,2.5c-0.5,0.3-1,0.4-1.3,0.4c-0.3,0-0.7-0.2-1-0.5c-0.3-0.4-0.5-0.8-0.5-1.3
			c0-0.6,0.3-1.1,0.9-1.5c1.5-1.1,3.3-2,5.5-2.7c2.6-0.9,5.1-1.3,7.4-1.3c2.9,0,5.3,1,7.1,3c1.7,1.8,2.5,4,2.5,6.6
			c0,4.3-1.8,9.6-5.3,15.8c-3.8,6.6-8.4,12.6-13.9,17.8c-4.6,4.5-8.6,6.7-11.9,6.7c-2,0-3.5-0.9-4.7-2.7c-0.9-1.4-1.4-3-1.4-4.8
			c0-4.5,1.6-9.7,4.7-15.7C47.7,57,53.8,49.6,61.8,42.7z M63.7,42.3c0.4,0.5,0.6,0.9,0.6,1.3c0,0.3-0.7,1.2-2,2.6
			c-5.3,5.7-9.2,10.4-11.8,14.2c-2.6,3.9-4.7,7.8-6.1,11.7c-1,2.8-1.5,5.4-1.5,7.6c0,1.1,0.2,2,0.7,2.7c0.6,0.9,1.4,1.3,2.4,1.3
			c2.2,0,5.2-1.9,9-5.6c4.8-4.8,8.7-9.7,11.7-14.9c3.4-5.8,5.1-10.8,5.1-14.9c0-1.9-0.6-3.5-1.9-4.7c-1-0.9-2.3-1.4-3.9-1.4
			L63.7,42.3z"/>
	</g>
	<g class="st1">
		<path class="st3" d="M61.8,42.7c-1.8,0.3-3.9,1.1-6.4,2.5c-0.5,0.3-1,0.4-1.3,0.4c-0.3,0-0.7-0.2-1-0.5c-0.3-0.4-0.5-0.8-0.5-1.3
			c0-0.6,0.3-1.1,0.9-1.5c1.5-1.1,3.3-2,5.5-2.7c2.6-0.9,5.1-1.3,7.4-1.3c2.9,0,5.3,1,7.1,3c1.7,1.8,2.5,4,2.5,6.6
			c0,4.3-1.8,9.6-5.3,15.8c-3.8,6.6-8.4,12.6-13.9,17.8c-4.6,4.5-8.6,6.7-11.9,6.7c-2,0-3.5-0.9-4.7-2.7c-0.9-1.4-1.4-3-1.4-4.8
			c0-4.5,1.6-9.7,4.7-15.7C47.7,57,53.8,49.6,61.8,42.7z M63.7,42.3c0.4,0.5,0.6,0.9,0.6,1.3c0,0.3-0.7,1.2-2,2.6
			c-5.3,5.7-9.2,10.4-11.8,14.2c-2.6,3.9-4.7,7.8-6.1,11.7c-1,2.8-1.5,5.4-1.5,7.6c0,1.1,0.2,2,0.7,2.7c0.6,0.9,1.4,1.3,2.4,1.3
			c2.2,0,5.2-1.9,9-5.6c4.8-4.8,8.7-9.7,11.7-14.9c3.4-5.8,5.1-10.8,5.1-14.9c0-1.9-0.6-3.5-1.9-4.7c-1-0.9-2.3-1.4-3.9-1.4
			L63.7,42.3z"/>
	</g>
</g>
</svg>
