<?xml version="1.0" encoding="UTF-8"?>
<svg id="Layer_1" data-name="Layer 1" xmlns="http://www.w3.org/2000/svg" viewBox="0 0 403.71 91.35">
  <defs>
    <style>
      .cls-1 {
        fill: #fff;
      }

      .cls-2 {
        fill: #8dc63f;
      }
    </style>
  </defs>
  <path class="cls-2" d="m27.03,41.7c-.68-1.99-3.59-2.51-9.41-3.56-4.98-.89-11.8-2.02-15.68,1.95-.1.1-.18.18-.29.31-4.11,4.88-.02,17.61,6.08,18.94,3.18.69,6.12-1.99,11.99-7.37,4.38-4.01,8.24-7.54,7.3-10.28Z"/>
  <path class="cls-2" d="m29.5,34.55c1.22-1.72-.05-4.38-2.59-9.72-2.18-4.57-5.24-10.77-10.73-11.6-.13-.02-.25-.04-.42-.05-6.36-.5-14.32,10.25-11.85,15.98,1.29,2.99,5.19,3.81,12.98,5.45,5.81,1.22,10.93,2.3,12.61-.06Z"/>
  <path class="cls-2" d="m35.53,27.78c2.1-.11,3.41-2.76,6.01-8.06,2.23-4.54,5.2-10.79,2.45-15.61-.07-.12-.13-.22-.22-.36-3.55-5.3-16.93-4.88-19.88.62-1.54,2.87.23,6.43,3.78,13.56,2.64,5.32,4.97,10,7.87,9.85Z"/>
  <path class="cls-2" d="m46.11,31.44c1.56,1.41,4.36.46,9.95-1.44,4.79-1.63,11.31-3.94,12.77-9.3.04-.13.07-.24.1-.41,1.24-6.26-8.51-15.42-14.49-13.63-3.12.93-4.39,4.71-6.93,12.25-1.9,5.63-3.56,10.59-1.41,12.53Z"/>
  <path class="cls-1" d="m75.45,87.38c0,2.18-.99,3.27-3.07,3.27h-39.57c-8.63,0-12.89-4.26-12.89-12.89v-43.64c0-8.63,4.26-12.89,12.89-12.89h29.76c8.63,0,12.89,4.26,12.89,12.89v53.26Zm-32.83-53.76c-2.08,0-3.07,1.29-3.07,3.97v36.7c0,2.68.99,3.97,3.07,3.97h2.58c1.39,0,2.18-.69,2.38-2.18l.79-6.94c.2-1.69,1.09-2.58,2.58-2.58h5.26c1.19,0,1.79-.69,1.79-1.98v-26.98c0-2.68-1.09-3.97-3.17-3.97h-12.2Z"/>
  <g>
    <path class="cls-1" d="m146.81,78.45c0,8.63-4.27,12.89-12.89,12.89h-31.44c-8.63,0-12.89-4.26-12.89-12.89V25.89c0-2.68,1.29-3.97,3.97-3.97h14.78c2.68,0,3.97,1.29,3.97,3.97v50.09c0,1.98.99,2.98,2.88,2.98h11.01c1.69,0,2.48-.99,2.48-2.98V25.89c0-2.68,1.29-3.97,3.97-3.97h10.22c2.68,0,3.97,1.29,3.97,3.97v52.57Z"/>
    <path class="cls-1" d="m215.75,87.38c0,2.68-1.29,3.97-3.97,3.97h-10.51c-2.68,0-3.97-1.29-3.97-3.97v-18.05c0-.89-.5-1.39-1.39-1.39h-11.7c-.89,0-1.29.4-1.29,1.29v18.15c0,2.68-1.29,3.97-3.97,3.97h-19.04c-2.68,0-3.97-1.29-3.97-3.97v-20.73c0-1.49.4-2.78,1.09-3.87l5.46-8.13c.79-1.19,1.19-2.58,1.19-4.07v-5.56c0-2.08.69-4.07,2.08-5.85l9.62-12.99c2.08-2.88,4.96-4.26,8.53-4.26h24.89c4.66,0,6.94,2.28,6.94,6.94v58.52Zm-26.58-51.87c-1.19,0-2.18.6-2.88,1.69l-2.48,3.97c-.6.89-.89,1.88-.89,2.88v10.61c0,.89.4,1.29,1.19,1.29h11.8c.89,0,1.39-.4,1.39-1.29v-16.46c0-1.79-.79-2.68-2.28-2.68h-5.85Z"/>
    <path class="cls-1" d="m275.06,33.13c0,1.59-.69,2.38-2.18,2.38h-12.3c-.69,0-1.09.3-1.09.99v50.88c0,2.68-1.29,3.97-3.97,3.97h-19.04c-2.68,0-3.97-1.29-3.97-3.97v-24.7c0-1.49.4-2.78,1.09-3.87l5.46-8.13c.79-1.19,1.19-2.58,1.19-4.07v-10.12c0-.69-.4-.99-1.09-.99h-14.38c-1.49,0-2.18-.79-2.18-2.38v-8.83c0-1.59.7-2.38,2.18-2.38h48.1c1.49,0,2.18.79,2.18,2.38v8.83Z"/>
    <path class="cls-1" d="m338.84,44.43c0,2.68-.69,4.56-2.08,5.85l-6.94,6.35,8.33,24.7c.3.99.5,2.08.5,3.17v2.88c0,2.68-1.29,3.97-3.87,3.97h-14.98c-1.39,0-2.28-.69-2.68-1.98l-8.23-24.8c-.4-1.09-.4-2.88-.4-3.77v-5.26c0-1.59.79-2.38,2.48-2.38h2.18c1.19,0,2.18-.59,2.88-1.69l2.48-3.97c.6-.89.89-1.79.89-2.88v-5.36c0-3.27-1.88-4.96-5.55-4.96h-9.03c-.79,0-1.19.5-1.19,1.39v51.68c0,2.68-1.29,3.97-3.97,3.97h-13.79c-2.68,0-3.97-1.29-3.97-3.97V25.99c0-2.68,1.29-4.07,3.97-4.07h38.98c10.32,0,13.99,1.69,13.99,12.79v9.72Z"/>
    <path class="cls-1" d="m403.71,78.45c0,8.63-4.27,12.89-12.89,12.89h-29.75c-8.63,0-12.89-4.26-12.89-12.89v-43.64c0-8.63,4.27-12.89,12.89-12.89h29.75c8.63,0,12.89,4.26,12.89,12.89v43.64Zm-29.86-44.24c-2.08,0-3.07,1.29-3.07,3.97v36.8c0,2.68.99,3.97,3.07,3.97h10.32c2.28,0,3.47-1.29,3.47-3.97v-36.8c0-2.68-1.09-3.97-3.17-3.97h-10.61Z"/>
  </g>
</svg>