<?xml version="1.0" encoding="utf-8"?>
<!-- Generator: Adobe Illustrator 27.8.0, SVG Export Plug-In . SVG Version: 6.00 Build 0)  -->
<svg version="1.1" id="Layer_1" xmlns="http://www.w3.org/2000/svg" xmlns:xlink="http://www.w3.org/1999/xlink" x="0px" y="0px"
	 viewBox="0 0 432.7 393.5" style="enable-background:new 0 0 432.7 393.5;" xml:space="preserve">
<style type="text/css">
	.st0{fill:none;}
	.st1{enable-background:new    ;}
	.st2{fill:#D8DBEE;}
	.st3{fill:none;stroke:#9393C8;stroke-miterlimit:10;}
	.st4{fill:none;stroke:#9393C8;stroke-width:0.75;stroke-miterlimit:10;}
</style>
<g id="Layer_2_00000031186936061066567030000011072945391140474302_">
</g>
<g id="Layer_1_00000126287930039515904490000011161275735693074837_">
	<g>
		
			<rect x="329.3" y="-203.2" transform="matrix(3.098769e-03 -1 1 3.098769e-03 275.6969 529.2375)" class="st0" width="147.9" height="659.2"/>
		<g class="st1">
			<path class="st2" d="M125.4,144l0,1.6c0,1.3,0.3,2.6,1.1,3.4c1.6,2.4,4.1,3.4,7.9,3.5c7.9,0,17.2-6,27.8-17.9
				c1.9-2.1,3.6-3.2,4.6-3.2c0.8,0,1.4,0.3,1.9,1.1c0.3,0.5,0.5,1.1,0.5,1.3c0,2.4-3,6.6-9.3,12.4c-4.9,4.5-9.8,8.2-15.3,11
				c-5.5,2.9-10.4,4.2-15.3,4.2c-4.9,0-8.4-1.6-11.2-4.8c-1.9-2.1-2.7-5.3-2.7-9.3c0-10.6,5.2-20.9,15.3-30.9
				c8.2-8.2,15.6-12.4,21.6-12.4c1.6,0,3.3,0.5,4.6,1.6c1.6,1.3,2.4,2.9,2.4,5c0,3.4-1.7,7.4-4.7,12.1
				C148,133.2,138.2,140.1,125.4,144z M127.6,136.6c4.4-1.6,7.9-3.1,10.6-5c4.4-3.4,7.9-7.1,10.7-11.3c1.1-1.6,1.4-2.9,1.4-4
				c0-1.3-0.5-1.9-1.9-1.9c-1.6,0-4.1,1.3-7.1,3.7C135.8,122.3,131.2,128.4,127.6,136.6z"/>
			<path class="st2" d="M215.7,100.1c4.1,0,6.8,0.8,9,2.1c1.9,1.3,3,3.4,3,6.3c0,3.7-1.4,7.1-4.1,10.6c-2.7,3.2-6.8,5.8-12,7.9
				c-3,1-5.5,1.6-7.4,1.6c-2.7,0-4.1-1.1-4.1-3.4c0-1.6,0.8-2.6,2.2-3.4c0.3-0.3,2.5-0.8,6.5-1.6c2.5-0.5,4.6-1.6,6.5-3.2
				c1.6-1.3,2.5-2.9,2.5-4.7c0-1.3-0.3-2.4-1.1-2.9c-0.8-0.5-1.9-1.1-3.5-1.1c-3.8,0-7.9,1.6-12.3,4.5c-5.2,3.4-7.6,7.1-7.7,11.9
				c0,3.2,1.6,7.4,5.1,12.2c3.8,5.3,5.7,9.8,5.7,13.5c0,5.5-2.5,9.8-7.4,12.9c-3,1.8-6.5,2.9-10.4,2.9c-6,0-10.9-2.1-13.9-6.4
				c-2.2-3.2-3.2-6.6-3.2-10.8c0-4.8,1.4-9,3.9-12.1c1.6-2.1,3.3-3.2,5.2-3.2c1.6,0,2.4,0.5,2.4,1.9c0,0.5-0.3,1.3-0.8,2.1
				c-1.4,2.6-2.2,5.8-2.2,9.5c0,3.2,1.1,5.6,3.2,7.7c1.9,1.9,4.3,2.9,6.8,2.9c2.5,0,4.4-0.8,5.7-2.4c1.1-1.3,1.6-3.2,1.7-5.3
				c0-2.6-1.6-6.1-4.6-10.3c-4.1-5.8-6.2-10.9-6.2-15.6c0-6.3,3.6-11.6,10.4-16.6C201.3,102.2,208.3,100.1,215.7,100.1z"/>
			<path class="st2" d="M246.7,106.3c1.1,0,1.9,0.5,2.7,1.3c0.5,0.8,0.8,1.3,0.8,2.1c0,1.1-0.8,2.9-2.7,5.5
				c-6.6,10-11.5,18.2-14.2,24.8c-3,6.6-5.8,13.5-8,20.6c-1.1,3.2-2.7,4.7-4.9,4.7c-1.4,0-2.2-0.5-3-1.6c-0.8-0.8-1.1-1.6-1.1-2.6
				c0-1.8,2.2-8.2,6.1-18.7c3.3-8.4,8.5-17.7,15.6-27.7c2.2-3.2,4.1-5.5,5.2-6.6C244.6,106.8,245.6,106.3,246.7,106.3z M265.1,71.5
				c3,0,4.4,1.3,4.3,4.2c0,2.6-1.4,5.5-4.1,8.7c-2.7,3.2-5.2,4.5-7.6,4.5c-1.1,0-2.2-0.5-3-1.3c-0.8-0.8-1.1-1.9-1.1-2.9
				c0-2.9,1.7-6.1,5.2-9.5C261,72.8,263.2,71.5,265.1,71.5z"/>
			<path class="st2" d="M282.1,104.3c5.2,0,7.6,2.7,7.6,7.7c0,4.5-1.9,9.2-5.5,13.7c-2.7,3.4-5.2,5.3-7.4,5.3
				c-1.9,0-2.7-1.1-2.7-2.9c0-1.1,0.3-1.8,0.8-2.6c0.3-0.3,1.1-1.1,2.2-2.1c1.1-1.1,2.5-2.6,3.6-4.7c0.8-1.3,1.4-2.6,1.4-3.4
				c0-1.1-0.5-1.6-1.6-1.6c-1.4,0-3.3,1-6,3.2c-4.4,3.2-8.7,8.4-13.1,15.5c-4.4,7.4-6.9,13.2-6.9,17.4c0,1.3,0.5,2.6,1.4,3.7
				c1.1,1.6,2.7,2.4,4.9,2.4c4.1,0,8.7-2.4,14.2-7.4c4.6-4.2,8.7-8.4,11.8-12.4c1.6-2.4,3-3.4,4.4-3.4c0.8,0,1.4,0.3,1.9,1.1
				c0.5,0.5,0.8,1.3,0.8,1.9c0,2.4-3,6.9-9,13.4c-9.6,10.5-18.6,15.5-26.2,15.5c-4.6,0-8.4-1.6-10.9-5.1c-1.9-2.4-2.7-5.3-2.7-8.7
				c0-6.6,2.8-14,8.2-22.4c5.2-8.2,11.5-14.8,18.6-19.8C275.6,105.9,279.2,104.3,282.1,104.3z"/>
		</g>
		<g class="st1">
			<path class="st3" d="M125.4,144l0,1.6c0,1.3,0.3,2.6,1.1,3.4c1.6,2.4,4.1,3.4,7.9,3.5c7.9,0,17.2-6,27.8-17.9
				c1.9-2.1,3.6-3.2,4.6-3.2c0.8,0,1.4,0.3,1.9,1.1c0.3,0.5,0.5,1.1,0.5,1.3c0,2.4-3,6.6-9.3,12.4c-4.9,4.5-9.8,8.2-15.3,11
				c-5.5,2.9-10.4,4.2-15.3,4.2c-4.9,0-8.4-1.6-11.2-4.8c-1.9-2.1-2.7-5.3-2.7-9.3c0-10.6,5.2-20.9,15.3-30.9
				c8.2-8.2,15.6-12.4,21.6-12.4c1.6,0,3.3,0.5,4.6,1.6c1.6,1.3,2.4,2.9,2.4,5c0,3.4-1.7,7.4-4.7,12.1
				C148,133.2,138.2,140.1,125.4,144z M127.6,136.6c4.4-1.6,7.9-3.1,10.6-5c4.4-3.4,7.9-7.1,10.7-11.3c1.1-1.6,1.4-2.9,1.4-4
				c0-1.3-0.5-1.9-1.9-1.9c-1.6,0-4.1,1.3-7.1,3.7C135.8,122.3,131.2,128.4,127.6,136.6z"/>
			<path class="st3" d="M215.7,100.1c4.1,0,6.8,0.8,9,2.1c1.9,1.3,3,3.4,3,6.3c0,3.7-1.4,7.1-4.1,10.6c-2.7,3.2-6.8,5.8-12,7.9
				c-3,1-5.5,1.6-7.4,1.6c-2.7,0-4.1-1.1-4.1-3.4c0-1.6,0.8-2.6,2.2-3.4c0.3-0.3,2.5-0.8,6.5-1.6c2.5-0.5,4.6-1.6,6.5-3.2
				c1.6-1.3,2.5-2.9,2.5-4.7c0-1.3-0.3-2.4-1.1-2.9c-0.8-0.5-1.9-1.1-3.5-1.1c-3.8,0-7.9,1.6-12.3,4.5c-5.2,3.4-7.6,7.1-7.7,11.9
				c0,3.2,1.6,7.4,5.1,12.2c3.8,5.3,5.7,9.8,5.7,13.5c0,5.5-2.5,9.8-7.4,12.9c-3,1.8-6.5,2.9-10.4,2.9c-6,0-10.9-2.1-13.9-6.4
				c-2.2-3.2-3.2-6.6-3.2-10.8c0-4.8,1.4-9,3.9-12.1c1.6-2.1,3.3-3.2,5.2-3.2c1.6,0,2.4,0.5,2.4,1.9c0,0.5-0.3,1.3-0.8,2.1
				c-1.4,2.6-2.2,5.8-2.2,9.5c0,3.2,1.1,5.6,3.2,7.7c1.9,1.9,4.3,2.9,6.8,2.9c2.5,0,4.4-0.8,5.7-2.4c1.1-1.3,1.6-3.2,1.7-5.3
				c0-2.6-1.6-6.1-4.6-10.3c-4.1-5.8-6.2-10.9-6.2-15.6c0-6.3,3.6-11.6,10.4-16.6C201.3,102.2,208.3,100.1,215.7,100.1z"/>
			<path class="st3" d="M246.7,106.3c1.1,0,1.9,0.5,2.7,1.3c0.5,0.8,0.8,1.3,0.8,2.1c0,1.1-0.8,2.9-2.7,5.5
				c-6.6,10-11.5,18.2-14.2,24.8c-3,6.6-5.8,13.5-8,20.6c-1.1,3.2-2.7,4.7-4.9,4.7c-1.4,0-2.2-0.5-3-1.6c-0.8-0.8-1.1-1.6-1.1-2.6
				c0-1.8,2.2-8.2,6.1-18.7c3.3-8.4,8.5-17.7,15.6-27.7c2.2-3.2,4.1-5.5,5.2-6.6C244.6,106.8,245.6,106.3,246.7,106.3z M265.1,71.5
				c3,0,4.4,1.3,4.3,4.2c0,2.6-1.4,5.5-4.1,8.7c-2.7,3.2-5.2,4.5-7.6,4.5c-1.1,0-2.2-0.5-3-1.3c-0.8-0.8-1.1-1.9-1.1-2.9
				c0-2.9,1.7-6.1,5.2-9.5C261,72.8,263.2,71.5,265.1,71.5z"/>
			<path class="st3" d="M282.1,104.3c5.2,0,7.6,2.7,7.6,7.7c0,4.5-1.9,9.2-5.5,13.7c-2.7,3.4-5.2,5.3-7.4,5.3
				c-1.9,0-2.7-1.1-2.7-2.9c0-1.1,0.3-1.8,0.8-2.6c0.3-0.3,1.1-1.1,2.2-2.1c1.1-1.1,2.5-2.6,3.6-4.7c0.8-1.3,1.4-2.6,1.4-3.4
				c0-1.1-0.5-1.6-1.6-1.6c-1.4,0-3.3,1-6,3.2c-4.4,3.2-8.7,8.4-13.1,15.5c-4.4,7.4-6.9,13.2-6.9,17.4c0,1.3,0.5,2.6,1.4,3.7
				c1.1,1.6,2.7,2.4,4.9,2.4c4.1,0,8.7-2.4,14.2-7.4c4.6-4.2,8.7-8.4,11.8-12.4c1.6-2.4,3-3.4,4.4-3.4c0.8,0,1.4,0.3,1.9,1.1
				c0.5,0.5,0.8,1.3,0.8,1.9c0,2.4-3,6.9-9,13.4c-9.6,10.5-18.6,15.5-26.2,15.5c-4.6,0-8.4-1.6-10.9-5.1c-1.9-2.4-2.7-5.3-2.7-8.7
				c0-6.6,2.8-14,8.2-22.4c5.2-8.2,11.5-14.8,18.6-19.8C275.6,105.9,279.2,104.3,282.1,104.3z"/>
		</g>
		
			<rect x="87.1" y="45.6" transform="matrix(3.098769e-03 -1 1 3.098769e-03 -101.1698 458.1271)" class="st0" width="184.1" height="468.5"/>
		<g class="st1">
			<path class="st2" d="M152,189.2c-4.6,0.8-10.4,2.9-16.9,6.3c-1.4,0.8-2.5,1-3.3,1c-0.8,0-1.9-0.5-2.7-1.3
				c-0.8-1.1-1.4-2.1-1.4-3.4c0-1.6,0.8-2.9,2.5-4c3.8-2.6,8.7-5,14.5-6.8c7.1-2.4,13.4-3.4,19.6-3.4c7.6,0,13.9,2.7,18.8,7.7
				c4.3,4.5,6.5,10.3,6.5,17.2c0,11.1-4.7,24.8-14,40.9c-10.1,17.1-22.4,32.4-36.9,46.1c-12.3,11.6-22.9,17.1-31.6,17.1
				c-5.2,0-9.3-2.4-12.5-6.9c-2.4-3.7-3.5-7.7-3.5-12.4c0-11.6,4.2-25.1,12.7-40.6C114.5,226.4,130.7,207.1,152,189.2z M156.9,188.2
				c1.1,1.3,1.6,2.4,1.6,3.2c0,0.8-1.6,3.2-5.2,6.9c-14.2,14.8-24.6,26.9-31.4,36.6c-7.1,10-12.3,20.3-16.2,30.3
				c-2.7,7.4-3.9,13.7-3.9,19.5c0,2.9,0.5,5,1.6,7.1c1.4,2.4,3.5,3.4,6.5,3.5c6,0,13.9-4.7,24-14.5c12.6-12.4,23-25,31.2-38.2
				c9-15,13.7-28,13.7-38.5c0-5-1.6-9-4.9-12.2c-2.4-2.4-6-3.7-10.3-3.7L156.9,188.2z"/>
			<path class="st2" d="M197.2,259.7c4.6-4.7,9.6-8.7,14.2-12.1c6-4.2,10.4-6,13.1-6c1.1,0,2.2,0.5,3.3,1.3c1.1,1.1,1.6,2.1,1.6,3.4
				c0,1.6-1.4,4.2-4.1,7.9c-5.2,6.9-9.3,13.2-12,18.7c-2.5,4.7-3.6,8.2-3.6,10c0,1.6,0.8,2.6,2.4,2.6c3.5,0,9.3-6,17.5-17.9
				c1.6-2.4,3.3-3.7,4.6-3.7c1.4,0,1.9,0.8,1.9,2.1c0,2.4-2.5,7.1-7.4,14c-4.1,6.1-8.7,10.5-13.4,13.7c-3.3,2.1-6.3,3.2-8.7,3.1
				c-2.7,0-4.6-1.1-6-3.5c-0.8-1.3-1.1-2.9-1.1-4.8c0-5.5,1.9-11.9,6.1-19c1.1-1.6,3.8-6.6,8.8-14.2c-13.1,6.3-24,20.3-33.1,41.4
				c-0.8,2.4-2.2,3.7-3.8,3.7c-1.1,0-2.2-0.5-3-1.3c-0.8-0.8-1.1-1.9-1.1-3.2c0-2.1,2.2-7.9,6-17.4c7.7-17.7,14.8-33,21.4-45.1
				c6.6-12.4,14-25.3,22.2-38.8c1.9-3.2,3.6-5.5,4.7-6.6c1.1-1.1,2.2-1.6,3.5-1.6c1.1,0,2.2,0.5,3,1.9c0.5,0.8,1.1,1.9,1.1,2.9
				c0,1.8-1.1,4-3,7.1c-6.8,10.3-14,21.9-20.8,34.3C203.5,245.9,198.9,254.9,197.2,259.7z"/>
			<path class="st2" d="M242.7,280.1l0,1.6c0,1.3,0.3,2.6,1.1,3.4c1.6,2.4,4.1,3.4,7.9,3.5c7.9,0,17.2-6,27.8-17.9
				c1.9-2.1,3.6-3.2,4.6-3.2c0.8,0,1.4,0.3,1.9,1.1c0.3,0.5,0.5,1.1,0.5,1.3c0,2.4-3,6.6-9.3,12.4c-4.9,4.5-9.8,8.2-15.3,11
				c-5.5,2.9-10.4,4.2-15.3,4.2c-4.9,0-8.4-1.6-11.2-4.8c-1.9-2.1-2.7-5.3-2.7-9.3c0-10.6,5.2-20.9,15.3-30.9
				c8.2-8.2,15.6-12.4,21.6-12.4c1.6,0,3.3,0.5,4.6,1.6c1.6,1.3,2.4,2.9,2.4,5c0,3.4-1.7,7.4-4.7,12.1
				C265.3,269.6,255.7,276.5,242.7,280.1z M244.9,273c4.4-1.6,7.9-3.1,10.6-5c4.4-3.4,7.9-7.1,10.7-11.3c1.1-1.6,1.4-2.9,1.4-4
				c0-1.3-0.5-1.9-1.9-1.9c-1.6,0-4.1,1.3-7.1,3.7C253.1,258.5,248.4,264.8,244.9,273z"/>
			<path class="st2" d="M306.7,266.3c0.8-0.8,1.6-1.6,2.5-2.1c13.4-12.6,22.4-19,26.8-18.9c2.5,0,3.8,1.3,3.8,4c0,1.8-1.1,4-3.3,6.6
				c-12.3,14-18.3,26.1-18.4,36.7c0,3.4,1.1,6.6,3,9.8c0.8,1.3,1.4,2.6,1.4,3.4c0,0.8-0.3,1.6-1.1,2.1c-0.8,0.8-1.9,1.3-3,1.3
				c-2.7,0-4.9-1.6-6.5-4.8c-1.6-3.2-2.4-6.9-2.4-11.1c0-8.5,3.3-17.7,9.9-28c-8.7,5.5-16.9,15-24.3,28.7c-1.9,3.2-4.1,5-6,5
				c-1.1,0-1.9-0.3-2.7-1.1c-0.8-0.8-1.4-2.1-1.4-3.4c0-3.4,3.9-12.1,11.8-26.4c4.1-7.6,7.7-13.2,10.1-16.9c2.5-3.4,4.6-5,6.3-5
				c0.8,0,1.6,0.3,2.4,1.1c0.8,0.8,1.4,1.9,1.4,2.9c0,1.3-0.8,3.4-2.7,5.8C310.5,259.7,308.3,263.2,306.7,266.3z"/>
			<path class="st2" d="M347,280.5l0,1.6c0,1.3,0.3,2.6,1.1,3.4c1.6,2.4,4.1,3.4,7.9,3.5c7.9,0,17.2-6,27.8-17.9
				c1.9-2.1,3.6-3.2,4.6-3.2c0.8,0,1.4,0.3,1.9,1.1c0.3,0.5,0.5,1.1,0.5,1.3c0,2.4-3,6.6-9.3,12.4c-4.9,4.5-9.8,8.2-15.3,11
				c-5.5,2.9-10.4,4.2-15.3,4.2c-4.9,0-8.4-1.6-11.2-4.8c-1.9-2.1-2.7-5.3-2.7-9.3c0-10.6,5.2-20.9,15.3-30.9
				c8.2-8.2,15.6-12.4,21.6-12.4c1.6,0,3.3,0.5,4.6,1.6c1.6,1.3,2.4,2.9,2.4,5c0,3.4-1.7,7.4-4.7,12.1
				C369.6,270,360.1,276.8,347,280.5z M349.2,273.3c4.4-1.6,7.9-3.1,10.6-5c4.4-3.4,7.9-7.1,10.7-11.3c1.1-1.6,1.4-2.9,1.4-4
				c0-1.3-0.5-1.9-1.9-1.9c-1.6,0-4.1,1.3-7.1,3.7C357.4,258.8,352.7,265.2,349.2,273.3z"/>
		</g>
		<g class="st1">
			<path class="st3" d="M152,189.2c-4.6,0.8-10.4,2.9-16.9,6.3c-1.4,0.8-2.5,1-3.3,1c-0.8,0-1.9-0.5-2.7-1.3
				c-0.8-1.1-1.4-2.1-1.4-3.4c0-1.6,0.8-2.9,2.5-4c3.8-2.6,8.7-5,14.5-6.8c7.1-2.4,13.4-3.4,19.6-3.4c7.6,0,13.9,2.7,18.8,7.7
				c4.3,4.5,6.5,10.3,6.5,17.2c0,11.1-4.7,24.8-14,40.9c-10.1,17.1-22.4,32.4-36.9,46.1c-12.3,11.6-22.9,17.1-31.6,17.1
				c-5.2,0-9.3-2.4-12.5-6.9c-2.4-3.7-3.5-7.7-3.5-12.4c0-11.6,4.2-25.1,12.7-40.6C114.5,226.4,130.7,207.1,152,189.2z M156.9,188.2
				c1.1,1.3,1.6,2.4,1.6,3.2c0,0.8-1.6,3.2-5.2,6.9c-14.2,14.8-24.6,26.9-31.4,36.6c-7.1,10-12.3,20.3-16.2,30.3
				c-2.7,7.4-3.9,13.7-3.9,19.5c0,2.9,0.5,5,1.6,7.1c1.4,2.4,3.5,3.4,6.5,3.5c6,0,13.9-4.7,24-14.5c12.6-12.4,23-25,31.2-38.2
				c9-15,13.7-28,13.7-38.5c0-5-1.6-9-4.9-12.2c-2.4-2.4-6-3.7-10.3-3.7L156.9,188.2z"/>
			<path class="st3" d="M197.2,259.7c4.6-4.7,9.6-8.7,14.2-12.1c6-4.2,10.4-6,13.1-6c1.1,0,2.2,0.5,3.3,1.3c1.1,1.1,1.6,2.1,1.6,3.4
				c0,1.6-1.4,4.2-4.1,7.9c-5.2,6.9-9.3,13.2-12,18.7c-2.5,4.7-3.6,8.2-3.6,10c0,1.6,0.8,2.6,2.4,2.6c3.5,0,9.3-6,17.5-17.9
				c1.6-2.4,3.3-3.7,4.6-3.7c1.4,0,1.9,0.8,1.9,2.1c0,2.4-2.5,7.1-7.4,14c-4.1,6.1-8.7,10.5-13.4,13.7c-3.3,2.1-6.3,3.2-8.7,3.1
				c-2.7,0-4.6-1.1-6-3.5c-0.8-1.3-1.1-2.9-1.1-4.8c0-5.5,1.9-11.9,6.1-19c1.1-1.6,3.8-6.6,8.8-14.2c-13.1,6.3-24,20.3-33.1,41.4
				c-0.8,2.4-2.2,3.7-3.8,3.7c-1.1,0-2.2-0.5-3-1.3c-0.8-0.8-1.1-1.9-1.1-3.2c0-2.1,2.2-7.9,6-17.4c7.7-17.7,14.8-33,21.4-45.1
				c6.6-12.4,14-25.3,22.2-38.8c1.9-3.2,3.6-5.5,4.7-6.6c1.1-1.1,2.2-1.6,3.5-1.6c1.1,0,2.2,0.5,3,1.9c0.5,0.8,1.1,1.9,1.1,2.9
				c0,1.8-1.1,4-3,7.1c-6.8,10.3-14,21.9-20.8,34.3C203.5,245.9,198.9,254.9,197.2,259.7z"/>
			<path class="st3" d="M242.7,280.1l0,1.6c0,1.3,0.3,2.6,1.1,3.4c1.6,2.4,4.1,3.4,7.9,3.5c7.9,0,17.2-6,27.8-17.9
				c1.9-2.1,3.6-3.2,4.6-3.2c0.8,0,1.4,0.3,1.9,1.1c0.3,0.5,0.5,1.1,0.5,1.3c0,2.4-3,6.6-9.3,12.4c-4.9,4.5-9.8,8.2-15.3,11
				c-5.5,2.9-10.4,4.2-15.3,4.2c-4.9,0-8.4-1.6-11.2-4.8c-1.9-2.1-2.7-5.3-2.7-9.3c0-10.6,5.2-20.9,15.3-30.9
				c8.2-8.2,15.6-12.4,21.6-12.4c1.6,0,3.3,0.5,4.6,1.6c1.6,1.3,2.4,2.9,2.4,5c0,3.4-1.7,7.4-4.7,12.1
				C265.3,269.6,255.7,276.5,242.7,280.1z M244.9,273c4.4-1.6,7.9-3.1,10.6-5c4.4-3.4,7.9-7.1,10.7-11.3c1.1-1.6,1.4-2.9,1.4-4
				c0-1.3-0.5-1.9-1.9-1.9c-1.6,0-4.1,1.3-7.1,3.7C253.1,258.5,248.4,264.8,244.9,273z"/>
			<path class="st3" d="M306.7,266.3c0.8-0.8,1.6-1.6,2.5-2.1c13.4-12.6,22.4-19,26.8-18.9c2.5,0,3.8,1.3,3.8,4c0,1.8-1.1,4-3.3,6.6
				c-12.3,14-18.3,26.1-18.4,36.7c0,3.4,1.1,6.6,3,9.8c0.8,1.3,1.4,2.6,1.4,3.4c0,0.8-0.3,1.6-1.1,2.1c-0.8,0.8-1.9,1.3-3,1.3
				c-2.7,0-4.9-1.6-6.5-4.8c-1.6-3.2-2.4-6.9-2.4-11.1c0-8.5,3.3-17.7,9.9-28c-8.7,5.5-16.9,15-24.3,28.7c-1.9,3.2-4.1,5-6,5
				c-1.1,0-1.9-0.3-2.7-1.1c-0.8-0.8-1.4-2.1-1.4-3.4c0-3.4,3.9-12.1,11.8-26.4c4.1-7.6,7.7-13.2,10.1-16.9c2.5-3.4,4.6-5,6.3-5
				c0.8,0,1.6,0.3,2.4,1.1c0.8,0.8,1.4,1.9,1.4,2.9c0,1.3-0.8,3.4-2.7,5.8C310.5,259.7,308.3,263.2,306.7,266.3z"/>
			<path class="st3" d="M347,280.5l0,1.6c0,1.3,0.3,2.6,1.1,3.4c1.6,2.4,4.1,3.4,7.9,3.5c7.9,0,17.2-6,27.8-17.9
				c1.9-2.1,3.6-3.2,4.6-3.2c0.8,0,1.4,0.3,1.9,1.1c0.3,0.5,0.5,1.1,0.5,1.3c0,2.4-3,6.6-9.3,12.4c-4.9,4.5-9.8,8.2-15.3,11
				c-5.5,2.9-10.4,4.2-15.3,4.2c-4.9,0-8.4-1.6-11.2-4.8c-1.9-2.1-2.7-5.3-2.7-9.3c0-10.6,5.2-20.9,15.3-30.9
				c8.2-8.2,15.6-12.4,21.6-12.4c1.6,0,3.3,0.5,4.6,1.6c1.6,1.3,2.4,2.9,2.4,5c0,3.4-1.7,7.4-4.7,12.1
				C369.6,270,360.1,276.8,347,280.5z M349.2,273.3c4.4-1.6,7.9-3.1,10.6-5c4.4-3.4,7.9-7.1,10.7-11.3c1.1-1.6,1.4-2.9,1.4-4
				c0-1.3-0.5-1.9-1.9-1.9c-1.6,0-4.1,1.3-7.1,3.7C357.4,258.8,352.7,265.2,349.2,273.3z"/>
		</g>
		
			<rect x="38.4" y="68.2" transform="matrix(3.098769e-03 -1 1 3.098769e-03 -13.3985 237.442)" class="st0" width="147.9" height="114.4"/>
		<g class="st1">
			<path class="st2" d="M122.7,130.5l-22.9,12.6c-5.2,8.4-10.1,16.3-15.3,23.7c-5.2,7.4-9.6,13.7-13.7,18.5
				c-3.8,4.7-7.4,8.4-10.4,11.1s-4.9,3.9-6.3,3.9c-1.9,0-3.3-0.5-4.6-1.9c-1.1-1.3-1.6-2.6-1.6-4.2c0-6.1,3.6-13.7,10.7-22.7
				c7.1-9.2,18-18.7,33.3-29c6.6-12.4,12.1-23.5,16.4-33.5s7.7-18.7,9.9-25.9c2.2-7.1,3.9-12.9,4.7-17.2s1.4-7.1,1.4-8.2
				c0-2.4-0.8-3.7-2.7-3.7c-1.6,0-3.8,0.8-6.8,2.6c-3,1.8-6.3,4.2-9.8,7.9c-3.6,3.4-6.8,7.4-9.8,12.1c-3,4.5-5.7,9.5-8.5,15
				c-2.5,5.5-4.4,10.8-5.8,15.6c-1.4,4.8-1.9,8.4-1.9,11.4c0,0.8,0,2.4,0.3,4.8c0.5-0.8,1.1-1.8,1.9-2.9c0.8-1.1,1.6-2.4,2.7-3.4
				c1.1-1.1,2.5-2.1,3.5-2.9c0.8-0.5,1.6-1.1,2.7-1.3c1.1-0.3,1.6-0.3,1.6,0c0,0.3-1.6,2.4-4.9,6.3c-3.3,4-6.3,7.4-8.5,10.5
				c-1.4,1.8-3.3,3.4-5.5,5c-2.2,1.6-4.1,2.4-5.7,2.4s-3-0.8-3.5-2.4c-0.5-1.6-0.8-4-0.8-7.4c0-8.2,1.4-17.4,4.4-27.5
				c3-10,6.9-19,11.8-26.6c4.1-6.1,8.8-11.6,14.8-16.3c5.7-5,11.5-8.7,16.9-11.6c5.5-2.6,9.8-4.2,12.8-4.2c3.8,0,6.8,1.1,8.7,3.5
				c2.2,2.4,3,5.6,3,9.8c0,2.1-0.3,4.2-0.8,6.9c-0.6,2.6-1.1,5-1.9,7.7c-0.8,2.6-2.2,6.9-3.9,12.4c-1.9,5.8-3,9.5-3.6,11.3
				c-1.9,5.8-4.1,11.6-7.1,17.9c-3,6.1-7.1,14.2-12.6,24.3l17.7-9.2l0,4.8L122.7,130.5z"/>
		</g>
		<g class="st1">
			<path class="st4" d="M122.7,130.5l-22.9,12.6c-5.2,8.4-10.1,16.3-15.3,23.7c-5.2,7.4-9.6,13.7-13.7,18.5
				c-3.8,4.7-7.4,8.4-10.4,11.1s-4.9,3.9-6.3,3.9c-1.9,0-3.3-0.5-4.6-1.9c-1.1-1.3-1.6-2.6-1.6-4.2c0-6.1,3.6-13.7,10.7-22.7
				c7.1-9.2,18-18.7,33.3-29c6.6-12.4,12.1-23.5,16.4-33.5s7.7-18.7,9.9-25.9c2.2-7.1,3.9-12.9,4.7-17.2s1.4-7.1,1.4-8.2
				c0-2.4-0.8-3.7-2.7-3.7c-1.6,0-3.8,0.8-6.8,2.6c-3,1.8-6.3,4.2-9.8,7.9c-3.6,3.4-6.8,7.4-9.8,12.1c-3,4.5-5.7,9.5-8.5,15
				c-2.5,5.5-4.4,10.8-5.8,15.6c-1.4,4.8-1.9,8.4-1.9,11.4c0,0.8,0,2.4,0.3,4.8c0.5-0.8,1.1-1.8,1.9-2.9c0.8-1.1,1.6-2.4,2.7-3.4
				c1.1-1.1,2.5-2.1,3.5-2.9c0.8-0.5,1.6-1.1,2.7-1.3c1.1-0.3,1.6-0.3,1.6,0c0,0.3-1.6,2.4-4.9,6.3c-3.3,4-6.3,7.4-8.5,10.5
				c-1.4,1.8-3.3,3.4-5.5,5c-2.2,1.6-4.1,2.4-5.7,2.4s-3-0.8-3.5-2.4c-0.5-1.6-0.8-4-0.8-7.4c0-8.2,1.4-17.4,4.4-27.5
				c3-10,6.9-19,11.8-26.6c4.1-6.1,8.8-11.6,14.8-16.3c5.7-5,11.5-8.7,16.9-11.6c5.5-2.6,9.8-4.2,12.8-4.2c3.8,0,6.8,1.1,8.7,3.5
				c2.2,2.4,3,5.6,3,9.8c0,2.1-0.3,4.2-0.8,6.9c-0.6,2.6-1.1,5-1.9,7.7c-0.8,2.6-2.2,6.9-3.9,12.4c-1.9,5.8-3,9.5-3.6,11.3
				c-1.9,5.8-4.1,11.6-7.1,17.9c-3,6.1-7.1,14.2-12.6,24.3l17.7-9.2l0,4.8L122.7,130.5z"/>
		</g>
		
			<rect x="250.2" y="107.9" transform="matrix(3.098769e-03 -1 1 3.098769e-03 172.8166 474.1596)" class="st0" width="147.9" height="85"/>
		<g class="st1">
			<path class="st2" d="M291.6,126.3c7.6-6.6,15-11.6,22.1-14.7c7.1-3.1,12.5-4.7,16.4-4.7c1.1,0,1.9,0.5,3,1.3
				c0.8,0.8,1.6,1.9,2.2,2.9c0.5,1.1,0.8,1.9,0.8,2.4c0,0.8-0.3,1.6-1.1,1.8c-0.8,0.5-1.9,0.8-3.5,1.6c0.3,0.8,0.8,1.9,1.4,2.9
				s1.1,2.1,1.4,2.9c0.3,0.8,0.5,1.3,0.5,2.1c0,1.1-1.1,3.4-3.6,6.6c-2.5,3.2-4.1,5.5-5.2,7.1c-1.1,1.6-1.4,3.4-1.4,5.5
				c0,3.7,1.6,5.3,5.2,5.3c3.5,0,9-3.1,16.4-9.5l0,4c-12.6,13.7-21.6,20.3-27,20.3c-1.9,0-3.3-0.5-4.1-1.9s-1.4-3.2-1.3-5.6
				c0-3.7,1.4-9.2,4.4-16.6c-7.4,7.9-12.6,13.4-16.1,16.6c-3.6,3.4-6.6,5-8.7,5c-1.1,0-2.4-0.8-4.1-2.7c-1.6-1.9-3-4.2-4.3-7.1
				c-1.4-2.9-1.9-6.1-1.9-9.3c0-2.4,0.3-4.2,0.6-5.8c0.5-1.6,1.4-3.2,2.7-4.7C286.7,130.7,288.9,128.6,291.6,126.3z M327.3,118.2
				c-12.8,5.8-22.1,10.5-27.6,14.7c-5.5,3.9-8.2,8.2-8.2,12.4c0,1.6,0.3,2.9,0.8,3.7c0.5,1.1,1.4,1.6,2.2,1.6c0.5,0,1.6-0.3,3-1
				c5.2-2.9,10.1-6.8,14.2-11.6S321.3,126.6,327.3,118.2z"/>
		</g>
		<g class="st1">
			<path class="st3" d="M291.6,126.3c7.6-6.6,15-11.6,22.1-14.7c7.1-3.1,12.5-4.7,16.4-4.7c1.1,0,1.9,0.5,3,1.3
				c0.8,0.8,1.6,1.9,2.2,2.9c0.5,1.1,0.8,1.9,0.8,2.4c0,0.8-0.3,1.6-1.1,1.8c-0.8,0.5-1.9,0.8-3.5,1.6c0.3,0.8,0.8,1.9,1.4,2.9
				s1.1,2.1,1.4,2.9c0.3,0.8,0.5,1.3,0.5,2.1c0,1.1-1.1,3.4-3.6,6.6c-2.5,3.2-4.1,5.5-5.2,7.1c-1.1,1.6-1.4,3.4-1.4,5.5
				c0,3.7,1.6,5.3,5.2,5.3c3.5,0,9-3.1,16.4-9.5l0,4c-12.6,13.7-21.6,20.3-27,20.3c-1.9,0-3.3-0.5-4.1-1.9s-1.4-3.2-1.3-5.6
				c0-3.7,1.4-9.2,4.4-16.6c-7.4,7.9-12.6,13.4-16.1,16.6c-3.6,3.4-6.6,5-8.7,5c-1.1,0-2.4-0.8-4.1-2.7c-1.6-1.9-3-4.2-4.3-7.1
				c-1.4-2.9-1.9-6.1-1.9-9.3c0-2.4,0.3-4.2,0.6-5.8c0.5-1.6,1.4-3.2,2.7-4.7C286.7,130.7,288.9,128.6,291.6,126.3z M327.3,118.2
				c-12.8,5.8-22.1,10.5-27.6,14.7c-5.5,3.9-8.2,8.2-8.2,12.4c0,1.6,0.3,2.9,0.8,3.7c0.5,1.1,1.4,1.6,2.2,1.6c0.5,0,1.6-0.3,3-1
				c5.2-2.9,10.1-6.8,14.2-11.6S321.3,126.6,327.3,118.2z"/>
		</g>
	</g>
</g>
</svg>
