<?xml version="1.0" encoding="utf-8"?>
<!-- Generator: Adobe Illustrator 27.8.0, SVG Export Plug-In . SVG Version: 6.00 Build 0)  -->
<svg version="1.1" id="Layer_1" xmlns="http://www.w3.org/2000/svg" xmlns:xlink="http://www.w3.org/1999/xlink" x="0px" y="0px"
	 viewBox="0 0 183.7 137.5" style="enable-background:new 0 0 183.7 137.5;" xml:space="preserve">
<style type="text/css">
	.st0{fill:none;}
	.st1{enable-background:new    ;}
	.st2{fill:#D8DBEE;}
	.st3{fill:none;stroke:#9393C8;stroke-miterlimit:10;}
	.st4{fill:none;stroke:#9393C8;stroke-width:0.75;stroke-miterlimit:10;}
</style>
<g id="Layer_2_00000031186936061066567030000011072945391140474302_">
</g>
<g id="Layer_1_00000126287930039515904490000011161275735693074837_">
	<g>
		<rect x="35.5" y="16.3" class="st0" width="242" height="56"/>
		<g class="st1">
			<path class="st2" d="M54.5,51.3v0.6c0,0.5,0.1,1,0.4,1.3c0.6,0.9,1.5,1.3,2.9,1.3c2.9,0,6.3-2.3,10.2-6.8
				c0.7-0.8,1.3-1.2,1.7-1.2c0.3,0,0.5,0.1,0.7,0.4c0.1,0.2,0.2,0.4,0.2,0.5c0,0.9-1.1,2.5-3.4,4.7c-1.8,1.7-3.6,3.1-5.6,4.2
				c-2,1.1-3.8,1.6-5.6,1.6c-1.8,0-3.1-0.6-4.1-1.8c-0.7-0.8-1-2-1-3.5c0-4,1.9-7.9,5.6-11.7c3-3.1,5.7-4.7,7.9-4.7
				c0.6,0,1.2,0.2,1.7,0.6c0.6,0.5,0.9,1.1,0.9,1.9c0,1.3-0.6,2.8-1.7,4.6C62.8,47.2,59.2,49.8,54.5,51.3z M55.3,48.5
				c1.6-0.6,2.9-1.2,3.9-1.9c1.6-1.3,2.9-2.7,3.9-4.3c0.4-0.6,0.5-1.1,0.5-1.5c0-0.5-0.2-0.7-0.7-0.7c-0.6,0-1.5,0.5-2.6,1.4
				C58.3,43.1,56.6,45.4,55.3,48.5z"/>
			<path class="st2" d="M87.6,34.6c1.5,0,2.5,0.3,3.3,0.8c0.7,0.5,1.1,1.3,1.1,2.4c0,1.4-0.5,2.7-1.5,4c-1,1.2-2.5,2.2-4.4,3
				c-1.1,0.4-2,0.6-2.7,0.6c-1,0-1.5-0.4-1.5-1.3c0-0.6,0.3-1,0.8-1.3c0.1-0.1,0.9-0.3,2.4-0.6c0.9-0.2,1.7-0.6,2.4-1.2
				c0.6-0.5,0.9-1.1,0.9-1.8c0-0.5-0.1-0.9-0.4-1.1c-0.3-0.2-0.7-0.4-1.3-0.4c-1.4,0-2.9,0.6-4.5,1.7c-1.9,1.3-2.8,2.7-2.8,4.5
				c0,1.2,0.6,2.8,1.9,4.6c1.4,2,2.1,3.7,2.1,5.1c0,2.1-0.9,3.7-2.7,4.9c-1.1,0.7-2.4,1.1-3.8,1.1c-2.2,0-4-0.8-5.1-2.4
				c-0.8-1.2-1.2-2.5-1.2-4.1c0-1.8,0.5-3.4,1.4-4.6c0.6-0.8,1.2-1.2,1.9-1.2c0.6,0,0.9,0.2,0.9,0.7c0,0.2-0.1,0.5-0.3,0.8
				c-0.5,1-0.8,2.2-0.8,3.6c0,1.2,0.4,2.1,1.2,2.9c0.7,0.7,1.6,1.1,2.5,1.1c0.9,0,1.6-0.3,2.1-0.9c0.4-0.5,0.6-1.2,0.6-2
				c0-1-0.6-2.3-1.7-3.9c-1.5-2.2-2.3-4.1-2.3-5.9c0-2.4,1.3-4.4,3.8-6.3C82.3,35.4,84.9,34.6,87.6,34.6z"/>
			<path class="st2" d="M99,36.9c0.4,0,0.7,0.2,1,0.5c0.2,0.3,0.3,0.5,0.3,0.8c0,0.4-0.3,1.1-1,2.1c-2.4,3.8-4.2,6.9-5.2,9.4
				c-1.1,2.5-2.1,5.1-2.9,7.8c-0.4,1.2-1,1.8-1.8,1.8c-0.5,0-0.8-0.2-1.1-0.6c-0.3-0.3-0.4-0.6-0.4-1c0-0.7,0.8-3.1,2.2-7.1
				c1.2-3.2,3.1-6.7,5.7-10.5c0.8-1.2,1.5-2.1,1.9-2.5C98.2,37.1,98.6,36.9,99,36.9z M105.7,23.7c1.1,0,1.6,0.5,1.6,1.6
				c0,1-0.5,2.1-1.5,3.3c-1,1.2-1.9,1.7-2.8,1.7c-0.4,0-0.8-0.2-1.1-0.5c-0.3-0.3-0.4-0.7-0.4-1.1c0-1.1,0.6-2.3,1.9-3.6
				C104.2,24.2,105,23.7,105.7,23.7z"/>
			<path class="st2" d="M112,36.1c1.9,0,2.8,1,2.8,2.9c0,1.7-0.7,3.5-2,5.2c-1,1.3-1.9,2-2.7,2c-0.7,0-1-0.4-1-1.1
				c0-0.4,0.1-0.7,0.3-1c0.1-0.1,0.4-0.4,0.8-0.8c0.4-0.4,0.9-1,1.3-1.8c0.3-0.5,0.5-1,0.5-1.3c0-0.4-0.2-0.6-0.6-0.6
				c-0.5,0-1.2,0.4-2.2,1.2c-1.6,1.2-3.2,3.2-4.8,5.9c-1.6,2.8-2.5,5-2.5,6.6c0,0.5,0.2,1,0.5,1.4c0.4,0.6,1,0.9,1.8,0.9
				c1.5,0,3.2-0.9,5.2-2.8c1.7-1.6,3.2-3.2,4.3-4.7c0.6-0.9,1.1-1.3,1.6-1.3c0.3,0,0.5,0.1,0.7,0.4c0.2,0.2,0.3,0.5,0.3,0.7
				c0,0.9-1.1,2.6-3.3,5.1c-3.5,4-6.8,5.9-9.6,5.9c-1.7,0-3.1-0.6-4-1.9c-0.7-0.9-1-2-1-3.3c0-2.5,1-5.3,3-8.5
				c1.9-3.1,4.2-5.6,6.8-7.5C109.6,36.7,110.9,36.1,112,36.1z"/>
		</g>
		<g class="st1">
			<path class="st3" d="M54.5,51.3v0.6c0,0.5,0.1,1,0.4,1.3c0.6,0.9,1.5,1.3,2.9,1.3c2.9,0,6.3-2.3,10.2-6.8
				c0.7-0.8,1.3-1.2,1.7-1.2c0.3,0,0.5,0.1,0.7,0.4c0.1,0.2,0.2,0.4,0.2,0.5c0,0.9-1.1,2.5-3.4,4.7c-1.8,1.7-3.6,3.1-5.6,4.2
				c-2,1.1-3.8,1.6-5.6,1.6c-1.8,0-3.1-0.6-4.1-1.8c-0.7-0.8-1-2-1-3.5c0-4,1.9-7.9,5.6-11.7c3-3.1,5.7-4.7,7.9-4.7
				c0.6,0,1.2,0.2,1.7,0.6c0.6,0.5,0.9,1.1,0.9,1.9c0,1.3-0.6,2.8-1.7,4.6C62.8,47.2,59.2,49.8,54.5,51.3z M55.3,48.5
				c1.6-0.6,2.9-1.2,3.9-1.9c1.6-1.3,2.9-2.7,3.9-4.3c0.4-0.6,0.5-1.1,0.5-1.5c0-0.5-0.2-0.7-0.7-0.7c-0.6,0-1.5,0.5-2.6,1.4
				C58.3,43.1,56.6,45.4,55.3,48.5z"/>
			<path class="st3" d="M87.6,34.6c1.5,0,2.5,0.3,3.3,0.8c0.7,0.5,1.1,1.3,1.1,2.4c0,1.4-0.5,2.7-1.5,4c-1,1.2-2.5,2.2-4.4,3
				c-1.1,0.4-2,0.6-2.7,0.6c-1,0-1.5-0.4-1.5-1.3c0-0.6,0.3-1,0.8-1.3c0.1-0.1,0.9-0.3,2.4-0.6c0.9-0.2,1.7-0.6,2.4-1.2
				c0.6-0.5,0.9-1.1,0.9-1.8c0-0.5-0.1-0.9-0.4-1.1c-0.3-0.2-0.7-0.4-1.3-0.4c-1.4,0-2.9,0.6-4.5,1.7c-1.9,1.3-2.8,2.7-2.8,4.5
				c0,1.2,0.6,2.8,1.9,4.6c1.4,2,2.1,3.7,2.1,5.1c0,2.1-0.9,3.7-2.7,4.9c-1.1,0.7-2.4,1.1-3.8,1.1c-2.2,0-4-0.8-5.1-2.4
				c-0.8-1.2-1.2-2.5-1.2-4.1c0-1.8,0.5-3.4,1.4-4.6c0.6-0.8,1.2-1.2,1.9-1.2c0.6,0,0.9,0.2,0.9,0.7c0,0.2-0.1,0.5-0.3,0.8
				c-0.5,1-0.8,2.2-0.8,3.6c0,1.2,0.4,2.1,1.2,2.9c0.7,0.7,1.6,1.1,2.5,1.1c0.9,0,1.6-0.3,2.1-0.9c0.4-0.5,0.6-1.2,0.6-2
				c0-1-0.6-2.3-1.7-3.9c-1.5-2.2-2.3-4.1-2.3-5.9c0-2.4,1.3-4.4,3.8-6.3C82.3,35.4,84.9,34.6,87.6,34.6z"/>
			<path class="st3" d="M99,36.9c0.4,0,0.7,0.2,1,0.5c0.2,0.3,0.3,0.5,0.3,0.8c0,0.4-0.3,1.1-1,2.1c-2.4,3.8-4.2,6.9-5.2,9.4
				c-1.1,2.5-2.1,5.1-2.9,7.8c-0.4,1.2-1,1.8-1.8,1.8c-0.5,0-0.8-0.2-1.1-0.6c-0.3-0.3-0.4-0.6-0.4-1c0-0.7,0.8-3.1,2.2-7.1
				c1.2-3.2,3.1-6.7,5.7-10.5c0.8-1.2,1.5-2.1,1.9-2.5C98.2,37.1,98.6,36.9,99,36.9z M105.7,23.7c1.1,0,1.6,0.5,1.6,1.6
				c0,1-0.5,2.1-1.5,3.3c-1,1.2-1.9,1.7-2.8,1.7c-0.4,0-0.8-0.2-1.1-0.5c-0.3-0.3-0.4-0.7-0.4-1.1c0-1.1,0.6-2.3,1.9-3.6
				C104.2,24.2,105,23.7,105.7,23.7z"/>
			<path class="st3" d="M112,36.1c1.9,0,2.8,1,2.8,2.9c0,1.7-0.7,3.5-2,5.2c-1,1.3-1.9,2-2.7,2c-0.7,0-1-0.4-1-1.1
				c0-0.4,0.1-0.7,0.3-1c0.1-0.1,0.4-0.4,0.8-0.8c0.4-0.4,0.9-1,1.3-1.8c0.3-0.5,0.5-1,0.5-1.3c0-0.4-0.2-0.6-0.6-0.6
				c-0.5,0-1.2,0.4-2.2,1.2c-1.6,1.2-3.2,3.2-4.8,5.9c-1.6,2.8-2.5,5-2.5,6.6c0,0.5,0.2,1,0.5,1.4c0.4,0.6,1,0.9,1.8,0.9
				c1.5,0,3.2-0.9,5.2-2.8c1.7-1.6,3.2-3.2,4.3-4.7c0.6-0.9,1.1-1.3,1.6-1.3c0.3,0,0.5,0.1,0.7,0.4c0.2,0.2,0.3,0.5,0.3,0.7
				c0,0.9-1.1,2.6-3.3,5.1c-3.5,4-6.8,5.9-9.6,5.9c-1.7,0-3.1-0.6-4-1.9c-0.7-0.9-1-2-1-3.3c0-2.5,1-5.3,3-8.5
				c1.9-3.1,4.2-5.6,6.8-7.5C109.6,36.7,110.9,36.1,112,36.1z"/>
		</g>
		<rect x="-11.6" y="67.8" class="st0" width="172" height="69.7"/>
		<g class="st1">
			<path class="st2" d="M64.3,68.4c-1.7,0.3-3.8,1.1-6.2,2.4c-0.5,0.3-0.9,0.4-1.2,0.4c-0.3,0-0.7-0.2-1-0.5
				c-0.3-0.4-0.5-0.8-0.5-1.3c0-0.6,0.3-1.1,0.9-1.5c1.4-1,3.2-1.9,5.3-2.6c2.6-0.9,4.9-1.3,7.2-1.3c2.8,0,5.1,1,6.9,2.9
				c1.6,1.7,2.4,3.9,2.4,6.5c0,4.2-1.7,9.4-5.1,15.5c-3.7,6.5-8.2,12.3-13.5,17.5c-4.5,4.4-8.4,6.5-11.6,6.5c-1.9,0-3.4-0.9-4.6-2.6
				c-0.9-1.4-1.3-2.9-1.3-4.7c0-4.4,1.5-9.5,4.6-15.4C50.6,82.5,56.5,75.2,64.3,68.4z M66.1,68c0.4,0.5,0.6,0.9,0.6,1.2
				c0,0.3-0.6,1.2-1.9,2.6c-5.2,5.6-9,10.2-11.5,13.9c-2.6,3.8-4.5,7.7-5.9,11.5c-1,2.8-1.4,5.2-1.4,7.4c0,1.1,0.2,1.9,0.6,2.7
				c0.5,0.9,1.3,1.3,2.4,1.3c2.2,0,5.1-1.8,8.8-5.5c4.6-4.7,8.4-9.5,11.4-14.5c3.3-5.7,5-10.6,5-14.6c0-1.9-0.6-3.4-1.8-4.6
				c-0.9-0.9-2.2-1.4-3.8-1.4L66.1,68z"/>
			<path class="st2" d="M81,95c1.7-1.8,3.5-3.3,5.2-4.6c2.2-1.6,3.8-2.3,4.8-2.3c0.4,0,0.8,0.2,1.2,0.5c0.4,0.4,0.6,0.8,0.6,1.3
				c0,0.6-0.5,1.6-1.5,3c-1.9,2.6-3.4,5-4.4,7.1c-0.9,1.8-1.3,3.1-1.3,3.8c0,0.6,0.3,1,0.9,1c1.3,0,3.4-2.3,6.4-6.8
				c0.6-0.9,1.2-1.4,1.7-1.4s0.7,0.3,0.7,0.8c0,0.9-0.9,2.7-2.7,5.3c-1.5,2.3-3.2,4-4.9,5.2c-1.2,0.8-2.3,1.2-3.2,1.2
				c-1,0-1.7-0.4-2.2-1.3c-0.3-0.5-0.4-1.1-0.4-1.8c0-2.1,0.7-4.5,2.2-7.2c0.4-0.6,1.4-2.5,3.2-5.4c-4.8,2.4-8.8,7.7-12.1,15.7
				c-0.3,0.9-0.8,1.4-1.4,1.4c-0.4,0-0.8-0.2-1.1-0.5c-0.3-0.3-0.4-0.7-0.4-1.2c0-0.8,0.8-3,2.2-6.6c2.8-6.7,5.4-12.5,7.8-17.1
				c2.4-4.7,5.1-9.6,8.1-14.7c0.7-1.2,1.3-2.1,1.7-2.5c0.4-0.4,0.8-0.6,1.3-0.6c0.4,0,0.8,0.2,1.1,0.7c0.2,0.3,0.4,0.7,0.4,1.1
				c0,0.7-0.4,1.5-1.1,2.7c-2.5,3.9-5.1,8.3-7.6,13C83.3,89.8,81.6,93.2,81,95z"/>
			<path class="st2" d="M97.7,102.7v0.6c0,0.5,0.1,1,0.4,1.3c0.6,0.9,1.5,1.3,2.9,1.3c2.9,0,6.3-2.3,10.2-6.8
				c0.7-0.8,1.3-1.2,1.7-1.2c0.3,0,0.5,0.1,0.7,0.4c0.1,0.2,0.2,0.4,0.2,0.5c0,0.9-1.1,2.5-3.4,4.7c-1.8,1.7-3.6,3.1-5.6,4.2
				c-2,1.1-3.8,1.6-5.6,1.6c-1.8,0-3.1-0.6-4.1-1.8c-0.7-0.8-1-2-1-3.5c0-4,1.9-7.9,5.6-11.7c3-3.1,5.7-4.7,7.9-4.7
				c0.6,0,1.2,0.2,1.7,0.6c0.6,0.5,0.9,1.1,0.9,1.9c0,1.3-0.6,2.8-1.7,4.6C106,98.7,102.5,101.3,97.7,102.7z M98.5,100
				c1.6-0.6,2.9-1.2,3.9-1.9c1.6-1.3,2.9-2.7,3.9-4.3c0.4-0.6,0.5-1.1,0.5-1.5c0-0.5-0.2-0.7-0.7-0.7c-0.6,0-1.5,0.5-2.6,1.4
				C101.5,94.5,99.8,96.9,98.5,100z"/>
			<path class="st2" d="M121.2,97.4c0.3-0.3,0.6-0.6,0.9-0.8c4.9-4.8,8.2-7.2,9.8-7.2c0.9,0,1.4,0.5,1.4,1.5c0,0.7-0.4,1.5-1.2,2.5
				c-4.5,5.3-6.7,9.9-6.7,13.9c0,1.3,0.4,2.5,1.1,3.7c0.3,0.5,0.5,1,0.5,1.3c0,0.3-0.1,0.6-0.4,0.8c-0.3,0.3-0.7,0.5-1.1,0.5
				c-1,0-1.8-0.6-2.4-1.8c-0.6-1.2-0.9-2.6-0.9-4.2c0-3.2,1.2-6.7,3.6-10.6c-3.2,2.1-6.2,5.7-8.9,10.9c-0.7,1.2-1.5,1.9-2.2,1.9
				c-0.4,0-0.7-0.1-1-0.4c-0.3-0.3-0.5-0.8-0.5-1.3c0-1.3,1.4-4.6,4.3-10c1.5-2.9,2.8-5,3.7-6.4c0.9-1.3,1.7-1.9,2.3-1.9
				c0.3,0,0.6,0.1,0.9,0.4c0.3,0.3,0.5,0.7,0.5,1.1c0,0.5-0.3,1.3-1,2.2C122.6,94.9,121.8,96.2,121.2,97.4z"/>
			<path class="st2" d="M136,102.7v0.6c0,0.5,0.1,1,0.4,1.3c0.6,0.9,1.5,1.3,2.9,1.3c2.9,0,6.3-2.3,10.2-6.8
				c0.7-0.8,1.3-1.2,1.7-1.2c0.3,0,0.5,0.1,0.7,0.4c0.1,0.2,0.2,0.4,0.2,0.5c0,0.9-1.1,2.5-3.4,4.7c-1.8,1.7-3.6,3.1-5.6,4.2
				c-2,1.1-3.8,1.6-5.6,1.6c-1.8,0-3.1-0.6-4.1-1.8c-0.7-0.8-1-2-1-3.5c0-4,1.9-7.9,5.6-11.7c3-3.1,5.7-4.7,7.9-4.7
				c0.6,0,1.2,0.2,1.7,0.6c0.6,0.5,0.9,1.1,0.9,1.9c0,1.3-0.6,2.8-1.7,4.6C144.3,98.7,140.8,101.3,136,102.7z M136.8,100
				c1.6-0.6,2.9-1.2,3.9-1.9c1.6-1.3,2.9-2.7,3.9-4.3c0.4-0.6,0.5-1.1,0.5-1.5c0-0.5-0.2-0.7-0.7-0.7c-0.6,0-1.5,0.5-2.6,1.4
				C139.8,94.5,138.1,96.9,136.8,100z"/>
		</g>
		<g class="st1">
			<path class="st3" d="M64.3,68.4c-1.7,0.3-3.8,1.1-6.2,2.4c-0.5,0.3-0.9,0.4-1.2,0.4c-0.3,0-0.7-0.2-1-0.5
				c-0.3-0.4-0.5-0.8-0.5-1.3c0-0.6,0.3-1.1,0.9-1.5c1.4-1,3.2-1.9,5.3-2.6c2.6-0.9,4.9-1.3,7.2-1.3c2.8,0,5.1,1,6.9,2.9
				c1.6,1.7,2.4,3.9,2.4,6.5c0,4.2-1.7,9.4-5.1,15.5c-3.7,6.5-8.2,12.3-13.5,17.5c-4.5,4.4-8.4,6.5-11.6,6.5c-1.9,0-3.4-0.9-4.6-2.6
				c-0.9-1.4-1.3-2.9-1.3-4.7c0-4.4,1.5-9.5,4.6-15.4C50.6,82.5,56.5,75.2,64.3,68.4z M66.1,68c0.4,0.5,0.6,0.9,0.6,1.2
				c0,0.3-0.6,1.2-1.9,2.6c-5.2,5.6-9,10.2-11.5,13.9c-2.6,3.8-4.5,7.7-5.9,11.5c-1,2.8-1.4,5.2-1.4,7.4c0,1.1,0.2,1.9,0.6,2.7
				c0.5,0.9,1.3,1.3,2.4,1.3c2.2,0,5.1-1.8,8.8-5.5c4.6-4.7,8.4-9.5,11.4-14.5c3.3-5.7,5-10.6,5-14.6c0-1.9-0.6-3.4-1.8-4.6
				c-0.9-0.9-2.2-1.4-3.8-1.4L66.1,68z"/>
			<path class="st3" d="M81,95c1.7-1.8,3.5-3.3,5.2-4.6c2.2-1.6,3.8-2.3,4.8-2.3c0.4,0,0.8,0.2,1.2,0.5c0.4,0.4,0.6,0.8,0.6,1.3
				c0,0.6-0.5,1.6-1.5,3c-1.9,2.6-3.4,5-4.4,7.1c-0.9,1.8-1.3,3.1-1.3,3.8c0,0.6,0.3,1,0.9,1c1.3,0,3.4-2.3,6.4-6.8
				c0.6-0.9,1.2-1.4,1.7-1.4s0.7,0.3,0.7,0.8c0,0.9-0.9,2.7-2.7,5.3c-1.5,2.3-3.2,4-4.9,5.2c-1.2,0.8-2.3,1.2-3.2,1.2
				c-1,0-1.7-0.4-2.2-1.3c-0.3-0.5-0.4-1.1-0.4-1.8c0-2.1,0.7-4.5,2.2-7.2c0.4-0.6,1.4-2.5,3.2-5.4c-4.8,2.4-8.8,7.7-12.1,15.7
				c-0.3,0.9-0.8,1.4-1.4,1.4c-0.4,0-0.8-0.2-1.1-0.5c-0.3-0.3-0.4-0.7-0.4-1.2c0-0.8,0.8-3,2.2-6.6c2.8-6.7,5.4-12.5,7.8-17.1
				c2.4-4.7,5.1-9.6,8.1-14.7c0.7-1.2,1.3-2.1,1.7-2.5c0.4-0.4,0.8-0.6,1.3-0.6c0.4,0,0.8,0.2,1.1,0.7c0.2,0.3,0.4,0.7,0.4,1.1
				c0,0.7-0.4,1.5-1.1,2.7c-2.5,3.9-5.1,8.3-7.6,13C83.3,89.8,81.6,93.2,81,95z"/>
			<path class="st3" d="M97.7,102.7v0.6c0,0.5,0.1,1,0.4,1.3c0.6,0.9,1.5,1.3,2.9,1.3c2.9,0,6.3-2.3,10.2-6.8
				c0.7-0.8,1.3-1.2,1.7-1.2c0.3,0,0.5,0.1,0.7,0.4c0.1,0.2,0.2,0.4,0.2,0.5c0,0.9-1.1,2.5-3.4,4.7c-1.8,1.7-3.6,3.1-5.6,4.2
				c-2,1.1-3.8,1.6-5.6,1.6c-1.8,0-3.1-0.6-4.1-1.8c-0.7-0.8-1-2-1-3.5c0-4,1.9-7.9,5.6-11.7c3-3.1,5.7-4.7,7.9-4.7
				c0.6,0,1.2,0.2,1.7,0.6c0.6,0.5,0.9,1.1,0.9,1.9c0,1.3-0.6,2.8-1.7,4.6C106,98.7,102.5,101.3,97.7,102.7z M98.5,100
				c1.6-0.6,2.9-1.2,3.9-1.9c1.6-1.3,2.9-2.7,3.9-4.3c0.4-0.6,0.5-1.1,0.5-1.5c0-0.5-0.2-0.7-0.7-0.7c-0.6,0-1.5,0.5-2.6,1.4
				C101.5,94.5,99.8,96.9,98.5,100z"/>
			<path class="st3" d="M121.2,97.4c0.3-0.3,0.6-0.6,0.9-0.8c4.9-4.8,8.2-7.2,9.8-7.2c0.9,0,1.4,0.5,1.4,1.5c0,0.7-0.4,1.5-1.2,2.5
				c-4.5,5.3-6.7,9.9-6.7,13.9c0,1.3,0.4,2.5,1.1,3.7c0.3,0.5,0.5,1,0.5,1.3c0,0.3-0.1,0.6-0.4,0.8c-0.3,0.3-0.7,0.5-1.1,0.5
				c-1,0-1.8-0.6-2.4-1.8c-0.6-1.2-0.9-2.6-0.9-4.2c0-3.2,1.2-6.7,3.6-10.6c-3.2,2.1-6.2,5.7-8.9,10.9c-0.7,1.2-1.5,1.9-2.2,1.9
				c-0.4,0-0.7-0.1-1-0.4c-0.3-0.3-0.5-0.8-0.5-1.3c0-1.3,1.4-4.6,4.3-10c1.5-2.9,2.8-5,3.7-6.4c0.9-1.3,1.7-1.9,2.3-1.9
				c0.3,0,0.6,0.1,0.9,0.4c0.3,0.3,0.5,0.7,0.5,1.1c0,0.5-0.3,1.3-1,2.2C122.6,94.9,121.8,96.2,121.2,97.4z"/>
			<path class="st3" d="M136,102.7v0.6c0,0.5,0.1,1,0.4,1.3c0.6,0.9,1.5,1.3,2.9,1.3c2.9,0,6.3-2.3,10.2-6.8
				c0.7-0.8,1.3-1.2,1.7-1.2c0.3,0,0.5,0.1,0.7,0.4c0.1,0.2,0.2,0.4,0.2,0.5c0,0.9-1.1,2.5-3.4,4.7c-1.8,1.7-3.6,3.1-5.6,4.2
				c-2,1.1-3.8,1.6-5.6,1.6c-1.8,0-3.1-0.6-4.1-1.8c-0.7-0.8-1-2-1-3.5c0-4,1.9-7.9,5.6-11.7c3-3.1,5.7-4.7,7.9-4.7
				c0.6,0,1.2,0.2,1.7,0.6c0.6,0.5,0.9,1.1,0.9,1.9c0,1.3-0.6,2.8-1.7,4.6C144.3,98.7,140.8,101.3,136,102.7z M136.8,100
				c1.6-0.6,2.9-1.2,3.9-1.9c1.6-1.3,2.9-2.7,3.9-4.3c0.4-0.6,0.5-1.1,0.5-1.5c0-0.5-0.2-0.7-0.7-0.7c-0.6,0-1.5,0.5-2.6,1.4
				C139.8,94.5,138.1,96.9,136.8,100z"/>
		</g>
		<rect x="28.7" y="16.3" class="st0" width="42" height="56"/>
		<g class="st1">
			<path class="st2" d="M53.5,46.2L45.1,51c-1.9,3.2-3.7,6.2-5.6,9c-1.9,2.8-3.5,5.2-5,7c-1.4,1.8-2.7,3.2-3.8,4.2s-1.8,1.5-2.3,1.5
				c-0.7,0-1.2-0.2-1.7-0.7c-0.4-0.5-0.6-1-0.6-1.6c0-2.3,1.3-5.2,3.9-8.6c2.6-3.5,6.6-7.1,12.2-11c2.4-4.7,4.4-8.9,6-12.7
				c1.6-3.8,2.8-7.1,3.6-9.8c0.8-2.7,1.4-4.9,1.7-6.5c0.3-1.6,0.5-2.7,0.5-3.1c0-0.9-0.3-1.4-1-1.4c-0.6,0-1.4,0.3-2.5,1
				c-1.1,0.7-2.3,1.6-3.6,3c-1.3,1.3-2.5,2.8-3.6,4.6c-1.1,1.7-2.1,3.6-3.1,5.7c-0.9,2.1-1.6,4.1-2.1,5.9c-0.5,1.8-0.7,3.2-0.7,4.3
				c0,0.3,0,0.9,0.1,1.8c0.2-0.3,0.4-0.7,0.7-1.1c0.3-0.4,0.6-0.9,1-1.3c0.4-0.4,0.9-0.8,1.3-1.1c0.3-0.2,0.6-0.4,1-0.5
				c0.4-0.1,0.6-0.1,0.6,0c0,0.1-0.6,0.9-1.8,2.4s-2.3,2.8-3.1,4c-0.5,0.7-1.2,1.3-2,1.9c-0.8,0.6-1.5,0.9-2.1,0.9
				c-0.6,0-1.1-0.3-1.3-0.9c-0.2-0.6-0.3-1.5-0.3-2.8c0-3.1,0.5-6.6,1.6-10.4c1.1-3.8,2.5-7.2,4.3-10.1c1.5-2.3,3.2-4.4,5.4-6.2
				c2.1-1.9,4.2-3.3,6.2-4.4c2-1,3.6-1.6,4.7-1.6c1.4,0,2.5,0.4,3.2,1.3c0.8,0.9,1.1,2.1,1.1,3.7c0,0.8-0.1,1.6-0.3,2.6
				s-0.4,1.9-0.7,2.9c-0.3,1-0.8,2.6-1.4,4.7c-0.7,2.2-1.1,3.6-1.3,4.3c-0.7,2.2-1.5,4.4-2.6,6.8c-1.1,2.3-2.6,5.4-4.6,9.2l6.5-3.5
				V46.2z"/>
		</g>
		<g class="st1">
			<path class="st4" d="M53.5,46.2L45.1,51c-1.9,3.2-3.7,6.2-5.6,9c-1.9,2.8-3.5,5.2-5,7c-1.4,1.8-2.7,3.2-3.8,4.2s-1.8,1.5-2.3,1.5
				c-0.7,0-1.2-0.2-1.7-0.7c-0.4-0.5-0.6-1-0.6-1.6c0-2.3,1.3-5.2,3.9-8.6c2.6-3.5,6.6-7.1,12.2-11c2.4-4.7,4.4-8.9,6-12.7
				c1.6-3.8,2.8-7.1,3.6-9.8c0.8-2.7,1.4-4.9,1.7-6.5c0.3-1.6,0.5-2.7,0.5-3.1c0-0.9-0.3-1.4-1-1.4c-0.6,0-1.4,0.3-2.5,1
				c-1.1,0.7-2.3,1.6-3.6,3c-1.3,1.3-2.5,2.8-3.6,4.6c-1.1,1.7-2.1,3.6-3.1,5.7c-0.9,2.1-1.6,4.1-2.1,5.9c-0.5,1.8-0.7,3.2-0.7,4.3
				c0,0.3,0,0.9,0.1,1.8c0.2-0.3,0.4-0.7,0.7-1.1c0.3-0.4,0.6-0.9,1-1.3c0.4-0.4,0.9-0.8,1.3-1.1c0.3-0.2,0.6-0.4,1-0.5
				c0.4-0.1,0.6-0.1,0.6,0c0,0.1-0.6,0.9-1.8,2.4s-2.3,2.8-3.1,4c-0.5,0.7-1.2,1.3-2,1.9c-0.8,0.6-1.5,0.9-2.1,0.9
				c-0.6,0-1.1-0.3-1.3-0.9c-0.2-0.6-0.3-1.5-0.3-2.8c0-3.1,0.5-6.6,1.6-10.4c1.1-3.8,2.5-7.2,4.3-10.1c1.5-2.3,3.2-4.4,5.4-6.2
				c2.1-1.9,4.2-3.3,6.2-4.4c2-1,3.6-1.6,4.7-1.6c1.4,0,2.5,0.4,3.2,1.3c0.8,0.9,1.1,2.1,1.1,3.7c0,0.8-0.1,1.6-0.3,2.6
				s-0.4,1.9-0.7,2.9c-0.3,1-0.8,2.6-1.4,4.7c-0.7,2.2-1.1,3.6-1.3,4.3c-0.7,2.2-1.5,4.4-2.6,6.8c-1.1,2.3-2.6,5.4-4.6,9.2l6.5-3.5
				V46.2z"/>
		</g>
		<rect x="111.9" y="25.5" class="st0" width="31.2" height="56"/>
		<g class="st1">
			<path class="st2" d="M115.5,44.4c2.8-2.5,5.5-4.4,8.1-5.6c2.6-1.2,4.6-1.8,6-1.8c0.4,0,0.7,0.2,1.1,0.5c0.3,0.3,0.6,0.7,0.8,1.1
				c0.2,0.4,0.3,0.7,0.3,0.9c0,0.3-0.1,0.6-0.4,0.7c-0.3,0.2-0.7,0.3-1.3,0.6c0.1,0.3,0.3,0.7,0.5,1.1s0.4,0.8,0.5,1.1
				s0.2,0.5,0.2,0.8c0,0.4-0.4,1.3-1.3,2.5c-0.9,1.2-1.5,2.1-1.9,2.7c-0.4,0.6-0.5,1.3-0.5,2.1c0,1.4,0.6,2,1.9,2
				c1.3,0,3.3-1.2,6-3.6V51c-4.6,5.2-7.9,7.7-9.9,7.7c-0.7,0-1.2-0.2-1.5-0.7s-0.5-1.2-0.5-2.1c0-1.4,0.5-3.5,1.6-6.3
				c-2.7,3-4.6,5.1-5.9,6.3c-1.3,1.3-2.4,1.9-3.2,1.9c-0.4,0-0.9-0.3-1.5-1c-0.6-0.7-1.1-1.6-1.6-2.7c-0.5-1.1-0.7-2.3-0.7-3.5
				c0-0.9,0.1-1.6,0.2-2.2c0.2-0.6,0.5-1.2,1-1.8C113.7,46.1,114.5,45.3,115.5,44.4z M128.6,41.3c-4.7,2.2-8.1,4-10.1,5.6
				c-2,1.5-3,3.1-3,4.7c0,0.6,0.1,1.1,0.3,1.4c0.2,0.4,0.5,0.6,0.8,0.6c0.2,0,0.6-0.1,1.1-0.4c1.9-1.1,3.7-2.6,5.2-4.4
				S126.4,44.5,128.6,41.3z"/>
		</g>
		<g class="st1">
			<path class="st3" d="M115.5,44.4c2.8-2.5,5.5-4.4,8.1-5.6c2.6-1.2,4.6-1.8,6-1.8c0.4,0,0.7,0.2,1.1,0.5c0.3,0.3,0.6,0.7,0.8,1.1
				c0.2,0.4,0.3,0.7,0.3,0.9c0,0.3-0.1,0.6-0.4,0.7c-0.3,0.2-0.7,0.3-1.3,0.6c0.1,0.3,0.3,0.7,0.5,1.1s0.4,0.8,0.5,1.1
				s0.2,0.5,0.2,0.8c0,0.4-0.4,1.3-1.3,2.5c-0.9,1.2-1.5,2.1-1.9,2.7c-0.4,0.6-0.5,1.3-0.5,2.1c0,1.4,0.6,2,1.9,2
				c1.3,0,3.3-1.2,6-3.6V51c-4.6,5.2-7.9,7.7-9.9,7.7c-0.7,0-1.2-0.2-1.5-0.7s-0.5-1.2-0.5-2.1c0-1.4,0.5-3.5,1.6-6.3
				c-2.7,3-4.6,5.1-5.9,6.3c-1.3,1.3-2.4,1.9-3.2,1.9c-0.4,0-0.9-0.3-1.5-1c-0.6-0.7-1.1-1.6-1.6-2.7c-0.5-1.1-0.7-2.3-0.7-3.5
				c0-0.9,0.1-1.6,0.2-2.2c0.2-0.6,0.5-1.2,1-1.8C113.7,46.1,114.5,45.3,115.5,44.4z M128.6,41.3c-4.7,2.2-8.1,4-10.1,5.6
				c-2,1.5-3,3.1-3,4.7c0,0.6,0.1,1.1,0.3,1.4c0.2,0.4,0.5,0.6,0.8,0.6c0.2,0,0.6-0.1,1.1-0.4c1.9-1.1,3.7-2.6,5.2-4.4
				S126.4,44.5,128.6,41.3z"/>
		</g>
	</g>
</g>
</svg>
