<?xml version="1.0" encoding="UTF-8"?>
<svg xmlns="http://www.w3.org/2000/svg" viewBox="0 0 622.47 691">
  <defs>
    <style>
      .cls-1 {
        fill: #f47723;
      }

      .cls-2 {
        fill: #f79028;
      }

      .cls-3 {
        fill: #8dc63f;
      }
    </style>
  </defs>
  <g id="fruit">
    <path id="bigcircle" class="cls-2" d="m622.47,379.77c0,171.89-139.34,311.23-311.23,311.23S0,551.66,0,379.77,139.34,68.53,311.23,68.53s311.23,139.34,311.23,311.23Z"/>
  </g>
  <g id="tinycircles">
    <path id="circles" class="cls-1" d="m143.93,230.73c0,10.09-8.18,18.27-18.27,18.27s-18.27-8.18-18.27-18.27,8.18-18.27,18.27-18.27,18.27,8.18,18.27,18.27Zm-36.54,59.78c-10.09,0-18.27,8.18-18.27,18.27s8.18,18.27,18.27,18.27,18.27-8.18,18.27-18.27-8.18-18.27-18.27-18.27Zm72.64-28.78c-10.09,0-18.27,8.18-18.27,18.27s8.18,18.27,18.27,18.27,18.27-8.18,18.27-18.27-8.18-18.27-18.27-18.27Z"/>
  </g>
  <g id="leaves">
    <path id="leaves2" class="cls-3" d="m554.9,44.47c-17.48,21.43-46.44,50.03-89.45,68.92-17.67,7.76-41.46,17.91-74.04,17.57-15.58-.16-29.56-2.68-41.59-6.17-29.47,10.15-66.85,18.24-109.75,16.52-24.48-.98-57.26-2.64-94.23-21.15-43.21-21.63-67.72-54.05-78.85-71.15C85.42,35.18,144.99-5.79,224.98.69c22.3,1.81,73.59,5.96,115.1,46.39,3.14,3.05,6.05,6.16,8.76,9.28,14.5-14.14,33.36-27.93,57.35-37.32,16.42-6.42,54.17-21.2,97.53-6.91,25.16,8.29,42.09,23.04,51.19,32.35Z"/>
  </g>
</svg>