<?xml version="1.0" encoding="UTF-8"?>
<svg id="passionfruit" xmlns="http://www.w3.org/2000/svg" viewBox="0 0 622.47 723">
  <defs>
    <style>
      .bgpf {
        fill: #b52f51;
      }

      .leavepf {
        fill: #8dc63f;
      }

      .stempf {
        fill: #5d4627;
      }
    </style>
  </defs>
  <path id="stempf" class="stempf" d="m398.5,13.04c-1.82,11.63-4.96,25.21-10.4,39.86-10.78,29.04-26.16,50.32-38.13,64.13l20.8-6.93c11.41-8.45,28.65-23.41,43.33-46.79,15.79-25.16,21.61-48.92,24.01-63.31-13.2,4.35-26.4,8.7-39.61,13.04Z"/>
  <path id="bgpf" class="bgpf" d="m622.47,411.76c0,171.89-139.34,311.23-311.23,311.23S0,583.65,0,411.76,139.34,100.53,311.23,100.53c18.03,0,35.69,1.53,52.88,4.47,146.7,25.11,258.35,152.9,258.35,306.76Z"/>
  <path id="leavepf" class="leavepf" d="m384.02,63.04c-12.69,6.82-54.84,27.38-106.84,15.86-27.45-6.08-47.35-18.82-58.93-27.73,7-7.49,20.04-19.49,39.86-27.73,15.62-6.5,29.65-8.25,39-8.67,8.32-.85,25.4-1.43,44.19,6.93,27.04,12.04,39.27,34.41,42.72,41.33Z"/>
</svg>