<?xml version="1.0" encoding="UTF-8"?>
<svg id="pineapplefruit" xmlns="http://www.w3.org/2000/svg" viewBox="0 0 622.47 809.71">
  <defs>
    <style>
      .yellowbgcircle{
        fill: #fde31f;
      }

      .pineappleleaves {
        fill: #8dc63f;
      }
    </style>
  </defs>
  <path id="pineappleleaves" class="pineappleleaves" d="m479.48,88.7c-20.11,1.48-51.45,8.06-79.45,34.73-1.6,1.53-3.24,3.22-4.91,5.05-.71-13.96-4.25-46.47-26.76-79.11-19.66-28.51-44.1-43.06-56.52-49.38-9.7,5.86-35.43,23.15-50.82,57.26-14.82,32.83-11.54,62.4-9.71,73.69-6.77-7.67-17.73-18.23-33.64-26.97-21.43-11.78-41.44-14.56-52.89-15.28-13.93,37.97-15.03,69.25-13.88,89.22,1.21,20.93,2.45,38.05,14.19,45.7,13.53,8.82,30.04-2.11,65.43-11.97,0,0,33.39-9.3,80.7-12.26,25.02-1.57,61.64-.1,107.26,15.32,1.75,1.55,26.94,23.26,48.91,14.49,18.8-7.5,22.89-32.36,25.95-51.28,2.52-15.57,4.99-48.16-13.88-89.22Z"/>
  <g id="yellowbgcircle">
    <path class="yellowbgcircle" d="m622.47,498.47c0,171.89-139.34,311.23-311.23,311.23S0,670.36,0,498.47,139.34,187.24,311.23,187.24s311.23,139.34,311.23,311.23Z"/>
  </g>
</svg>